<svg width="71" height="73" viewBox="0 0 71 73" fill="none" xmlns="http://www.w3.org/2000/svg">
<path d="M8.63158 60.1716H11.2134V47.948C11.2134 47.4135 11.6471 46.9798 12.1816 46.9798H20.3408C20.8753 46.9798 21.309 47.4135 21.309 47.948V60.1716H24.0421V33.8364C24.0421 33.3019 24.4757 32.8682 25.0102 32.8682H33.1694C33.704 32.8682 34.1376 33.3019 34.1376 33.8364V60.1716H36.8707V41.4405C36.8707 40.906 37.3044 40.4723 37.8389 40.4723H45.9981C46.5326 40.4723 46.9663 40.906 46.9663 41.4405V60.1716H49.6994V25.1305C49.6994 24.596 50.1331 24.1623 50.6676 24.1623H58.8268C59.3613 24.1623 59.795 24.596 59.795 25.1305V60.1716H62.3768C63.239 60.1716 64.0257 60.5271 64.5955 61.0944C65.1679 61.6693 65.5234 62.4559 65.5234 63.3157V65.4916C65.5234 66.0261 65.0897 66.4597 64.5552 66.4597H6.46428C5.92976 66.4597 5.49609 66.0261 5.49609 65.4916V63.3157C5.49609 62.4534 5.8516 61.6667 6.4189 61.0969C6.99124 60.5246 7.7779 60.1716 8.64268 60.1716H8.63158ZM18.225 31.2042L25.8749 24.7045C25.6707 24.2582 25.5572 23.7616 25.5572 23.2397C25.5572 22.2664 25.9531 21.384 26.591 20.7461C27.2289 20.1031 28.1139 19.7073 29.0896 19.7073C30.0653 19.7073 30.9478 20.1031 31.5882 20.7436L31.6462 20.8066C32.2513 21.442 32.6245 22.2992 32.6245 23.2421L32.6194 23.4287L39.0185 25.6222C39.1395 25.4508 39.2732 25.2919 39.4194 25.1457C40.0573 24.5028 40.9423 24.1069 41.918 24.1069C42.5307 24.1069 43.1055 24.2607 43.6073 24.5355L51.6806 16.2886C51.3831 15.7717 51.2142 15.1741 51.2142 14.5363C51.2142 13.5631 51.61 12.6806 52.248 12.0427C52.8859 11.3998 53.7708 11.0039 54.7466 11.0039C55.7223 11.0039 56.6048 11.3998 57.2452 12.0402C57.8831 12.6781 58.2815 13.5631 58.2815 14.5388C58.2815 15.5145 57.8856 16.397 57.2452 17.0374L57.1822 17.0954C56.5468 17.7005 55.6896 18.0737 54.7466 18.0737C54.1365 18.0737 53.5616 17.9173 53.0598 17.645L44.9839 25.892C45.2814 26.4089 45.4504 27.0065 45.4504 27.6469C45.4504 28.6226 45.0545 29.5051 44.4141 30.1455L44.351 30.2035C43.7157 30.8086 42.8584 31.1817 41.9155 31.1817C40.9423 31.1817 40.0598 30.7859 39.4219 30.148C38.7815 29.505 38.3831 28.6226 38.3831 27.6494L38.3882 27.4628L31.9891 25.2693C31.868 25.4407 31.7344 25.5996 31.5882 25.7458C30.9452 26.3862 30.0628 26.7846 29.0895 26.7846C28.3659 26.7846 27.6902 26.5627 27.1279 26.187L19.4761 32.6894C19.6803 33.1356 19.7963 33.6323 19.7963 34.1542C19.7963 35.1274 19.4004 36.0099 18.7625 36.6478C18.1196 37.2882 17.2371 37.6866 16.2639 37.6866C15.2907 37.6866 14.4082 37.2907 13.7703 36.6528C13.1274 36.0149 12.7315 35.1299 12.7315 34.1542C12.7315 33.1785 13.1274 32.296 13.7678 31.6556L13.8308 31.5976C14.4662 30.9925 15.3235 30.6194 16.2664 30.6194C16.9925 30.6194 17.6683 30.8387 18.2305 31.2144L18.225 31.2042ZM55.873 13.4039C55.5856 13.1165 55.1847 12.9349 54.7435 12.9349C54.3023 12.9349 53.9039 13.114 53.614 13.4039C53.3265 13.6913 53.1475 14.0922 53.1475 14.5334C53.1475 14.9722 53.324 15.3731 53.6089 15.6605L53.6442 15.6958C53.9291 15.963 54.3174 16.1294 54.7435 16.1294C55.1645 16.1294 55.5503 15.9656 55.8352 15.7008L55.873 15.663C56.1605 15.3756 56.342 14.9747 56.342 14.5335C56.342 14.0922 56.163 13.6938 55.873 13.4039ZM30.2188 22.1098C29.9314 21.8224 29.5305 21.6408 29.0893 21.6408C28.648 21.6408 28.2497 21.8198 27.9597 22.1098C27.6723 22.3972 27.4933 22.7981 27.4933 23.2393C27.4933 23.6806 27.6723 24.0789 27.9597 24.3689C28.2471 24.6563 28.648 24.8353 29.0893 24.8353C29.5305 24.8353 29.9314 24.6563 30.2213 24.3689C30.3852 24.205 30.5138 24.0033 30.5945 23.7814L30.5995 23.7713L30.6046 23.7587L30.6071 23.7537L30.6121 23.7335C30.6626 23.5772 30.6903 23.4133 30.6903 23.2393C30.6903 22.8183 30.5264 22.4325 30.2617 22.1476L30.2238 22.1098L30.2188 22.1098ZM43.0446 26.507C42.7572 26.2195 42.3563 26.038 41.9151 26.038C41.4739 26.038 41.0755 26.217 40.7855 26.507C40.6217 26.6708 40.4906 26.87 40.4124 27.0944L40.4099 27.1045L40.4048 27.1171L40.4023 27.1222L40.3973 27.1423C40.3468 27.2961 40.3191 27.4625 40.3191 27.6365C40.3191 28.0777 40.4981 28.4786 40.7856 28.7686C41.073 29.056 41.4739 29.235 41.9176 29.235C42.3387 29.235 42.7244 29.0711 43.0093 28.8064L43.0472 28.7686C43.3346 28.4811 43.5161 28.0803 43.5161 27.639C43.5161 27.1978 43.3371 26.7994 43.0472 26.5095L43.0446 26.507ZM17.3904 33.0144C17.103 32.727 16.7021 32.548 16.2609 32.548C15.8398 32.548 15.454 32.7119 15.1691 32.9766L15.1313 33.0144C14.8439 33.3018 14.6624 33.7027 14.6624 34.144C14.6624 34.5852 14.8414 34.9836 15.1313 35.2735C15.4187 35.5609 15.8196 35.74 16.2609 35.74C16.7021 35.74 17.103 35.5609 17.3929 35.2735C17.6803 34.9861 17.8594 34.5852 17.8594 34.1414C17.8594 33.7582 17.7257 33.4078 17.5039 33.1329L17.4963 33.1228L17.461 33.0875L17.4534 33.0775L17.4282 33.0497L17.3904 33.0119L17.3904 33.0144ZM51.6324 60.1739H57.855V26.101H51.6324V60.1739ZM25.9782 60.1739H32.2007V34.8069H25.9782V60.1739ZM38.804 60.1739H45.0266V42.411H38.804V60.1739ZM13.1498 60.1739H19.3723V48.9184H13.1498V60.1739ZM62.3708 62.1102H8.62642C8.2936 62.1102 7.98853 62.2464 7.77171 62.4657C7.55487 62.6851 7.4162 62.9876 7.4162 63.3204V64.5281H63.5708V63.3204C63.5708 62.9876 63.4346 62.6851 63.2178 62.4682C62.9959 62.2464 62.6959 62.1127 62.3605 62.1127L62.3708 62.1102Z" fill="#3239C8"/>
</svg>
