<svg width="78" height="80" viewBox="0 0 78 80" fill="none" xmlns="http://www.w3.org/2000/svg">
<path fill-rule="evenodd" clip-rule="evenodd" d="M40.6864 14.3167V21.6678H48.0319L40.6864 14.3167ZM43.0187 49.1479L30.1778 49.1452C30.0975 49.1479 30.0227 49.1812 29.9673 49.2393C29.9091 49.2947 29.8786 49.3723 29.8814 49.4498V51.8984C29.8786 51.976 29.9091 52.0535 29.9673 52.1089C30.0227 52.1671 30.0975 52.2003 30.1778 52.2031H43.0216C43.1019 52.2003 43.1767 52.1671 43.2321 52.1089C43.2875 52.0535 43.3179 51.976 43.3179 51.8984V49.4498C43.3179 49.3723 43.2875 49.2947 43.2321 49.2393C43.1767 49.1812 43.1019 49.1479 43.0216 49.1452L43.0187 49.1479ZM25.9034 65.6619C25.9034 65.1273 26.3355 64.6952 26.8673 64.6952C27.3992 64.6952 27.8313 65.1273 27.8313 65.6619C27.8396 65.9278 27.9476 66.1799 28.136 66.371C28.532 66.7477 29.158 66.7477 29.5541 66.371C29.7425 66.1799 29.8533 65.9278 29.8588 65.6619C29.8561 65.0969 29.3963 64.6399 28.8312 64.6399C27.3494 64.6786 26.0697 63.6178 25.8314 62.1553C25.596 60.6928 26.4768 59.2829 27.895 58.8536V58.5988C27.895 58.067 28.3271 57.6348 28.8589 57.6348C29.3908 57.6348 29.8229 58.0669 29.8229 58.5988V58.8536C31.0333 59.2663 31.8394 60.413 31.8172 61.69C31.8172 62.2218 31.3851 62.6539 30.8533 62.6539C30.3187 62.6539 29.8866 62.2218 29.8866 61.69C29.881 61.4241 29.773 61.1692 29.5819 60.9809C29.1858 60.6014 28.5625 60.6014 28.1637 60.9809C27.9698 61.172 27.8618 61.4351 27.8618 61.7066C27.8618 61.9808 27.9698 62.2439 28.1637 62.435C28.352 62.6234 28.6069 62.7286 28.8728 62.7314C30.3242 62.7231 31.5679 63.7701 31.8061 65.1994C32.047 66.6314 31.2133 68.0247 29.8367 68.49V68.7448C29.8367 69.2766 29.4074 69.7088 28.8728 69.7088C28.341 69.7088 27.9088 69.2766 27.9088 68.7448V68.49C26.6984 68.0773 25.8952 66.9306 25.9173 65.6536L25.9034 65.6619ZM33.7034 58.8037C31.3795 56.4798 27.7398 56.1196 25.0085 57.9423C22.2746 59.7676 21.2137 63.2688 22.4686 66.3046C23.7261 69.3376 26.953 71.0632 30.1742 70.4234C33.3956 69.7808 35.7168 66.9528 35.7168 63.6677C35.7168 61.8451 34.9914 60.0944 33.7034 58.8037ZM37.6394 64.0997H37.6366C37.5868 65.1523 37.3458 66.1855 36.9276 67.1494H46.2181C46.2984 67.1549 46.3759 67.1217 46.4313 67.0635C46.4895 67.0081 46.5228 66.9334 46.5228 66.853V64.4045C46.5228 64.3241 46.4895 64.2493 46.4313 64.1939C46.3759 64.133 46.2984 64.0998 46.2181 64.0998L37.6394 64.0997ZM31.7174 72.0075L31.7534 72.0491C31.8088 72.1045 31.8863 72.1377 31.9639 72.1349H44.7999C44.8802 72.1377 44.9577 72.1072 45.0131 72.0491C45.0713 71.9937 45.1045 71.9161 45.1045 71.8358V69.39C45.1045 69.3097 45.0713 69.2321 45.0131 69.1767C44.9577 69.1185 44.8802 69.0853 44.7999 69.0853H35.8086C35.5925 69.3734 35.3543 69.6448 35.0995 69.8996C34.1522 70.858 32.9972 71.5865 31.723 72.0269L31.7174 72.0075ZM51.3308 27.7893H68.1278C69.6623 27.7921 70.906 29.0358 70.9088 30.5675V70.2766C70.906 71.8112 69.6623 73.0521 68.1278 73.0576H46.6586C46.5783 73.1795 46.4841 73.2931 46.3816 73.3983C45.9634 73.8166 45.3928 74.052 44.8 74.0492H31.964C31.3713 74.052 30.8035 73.8166 30.3852 73.3983C30.1054 73.1324 29.8977 72.8 29.7814 72.4316C29.4656 72.4676 29.1498 72.4842 28.8313 72.4815C24.6239 72.487 21.0037 69.5177 20.1811 65.3906H8.05424C7.79387 65.3906 7.54458 65.2853 7.36177 65.0997C7.18173 64.9114 7.08201 64.6593 7.09032 64.3989V11.9815C7.09032 11.4497 7.52243 11.0176 8.05426 11.0176H40.4179V11.3444L51.0542 21.9808L51.1041 22.0362C51.1623 22.1636 51.19 22.3021 51.19 22.4406V27.5898L51.3308 27.7893ZM64.0945 34.6033H44.0541V39.5032H64.0945V34.6033ZM43.0905 32.6671C42.8329 32.6643 42.5864 32.7668 42.4035 32.9468C42.2207 33.1269 42.1183 33.3734 42.1183 33.631V40.4671C42.1183 41.0044 42.5531 41.4393 43.0905 41.4393H65.0723C65.3299 41.4393 65.5764 41.3368 65.7565 41.154C65.9393 40.9712 66.039 40.7247 66.0362 40.4671V33.631C66.0362 33.3762 65.9365 33.1297 65.7537 32.9496C65.5736 32.7696 65.3271 32.6671 65.0723 32.6671H43.0905ZM45.1319 48.7216H46.5085V45.3313H43.1182V47.2176C43.6777 47.2426 44.2068 47.4752 44.6001 47.8713C44.8383 48.1123 45.0211 48.4031 45.1319 48.7216ZM55.7682 45.3313H52.3807V48.7216H55.771L55.7682 45.3313ZM51.4168 43.3951C51.1592 43.3951 50.9126 43.4976 50.7298 43.6804C50.5498 43.8632 50.4501 44.1098 50.4501 44.3674V49.6855C50.4501 49.9431 50.5498 50.1897 50.7298 50.3725C50.9126 50.5553 51.1592 50.6578 51.4168 50.6578H56.7267C56.9843 50.6578 57.2308 50.5553 57.4108 50.3725C57.5909 50.1897 57.6933 49.9431 57.6906 49.6855V44.3674C57.6933 44.1098 57.5909 43.8632 57.4108 43.6804C57.2308 43.4976 56.9843 43.3951 56.7267 43.3951H51.4168ZM65.0391 45.3313H61.6488V48.7216H65.0391L65.0363 45.3313H65.0391ZM60.6766 43.3951C60.419 43.3951 60.1725 43.4976 59.9924 43.6804C59.8096 43.8632 59.7099 44.1098 59.7127 44.3674V49.6855C59.7099 49.9431 59.8096 50.1897 59.9924 50.3725C60.1725 50.5553 60.419 50.6578 60.6766 50.6578H66.0031H66.0003C66.2579 50.6578 66.5044 50.5553 66.6872 50.3725C66.8673 50.1897 66.967 49.9431 66.967 49.6855V44.3674C66.967 44.1098 66.8673 43.8632 66.6872 43.6804C66.5044 43.4976 66.2579 43.3951 66.0003 43.3951H60.6766ZM55.7683 54.5995H52.3808V57.9898H55.7711L55.7683 54.5995ZM51.4141 52.6716H51.4168C50.8822 52.6716 50.4501 53.1037 50.4501 53.6355V58.962V58.9593C50.4501 59.4938 50.8822 59.926 51.4168 59.926H56.7267C56.9816 59.926 57.2281 59.8235 57.4081 59.6434C57.5882 59.4606 57.6907 59.2169 57.6907 58.9593V53.6273C57.6907 53.0954 57.2585 52.6633 56.7267 52.6633L51.4141 52.6716ZM65.0364 54.5995H61.6489V67.2497H65.0392L65.0364 54.5995ZM60.6766 52.6716C60.1448 52.6716 59.7127 53.1037 59.7127 53.6355V68.2137C59.7127 68.7456 60.1448 69.1777 60.6766 69.1777H66.0031H66.0004C66.258 69.1777 66.5017 69.078 66.6845 68.8952C66.8646 68.7151 66.967 68.4714 66.967 68.2138V53.6278C66.967 53.3729 66.8646 53.1264 66.6845 52.9464C66.5017 52.7663 66.258 52.6638 66.0004 52.6638L60.6766 52.6716ZM26.3134 25.9226C26.3134 26.6926 26.6181 27.4294 27.1637 27.9723C27.4629 28.2908 27.8313 28.5346 28.2412 28.6814V28.9085C28.219 29.1799 28.3104 29.4486 28.496 29.6481C28.6788 29.8503 28.9392 29.9638 29.2106 29.9638C29.4821 29.9638 29.7425 29.8503 29.9253 29.6481C30.1109 29.4486 30.2023 29.18 30.1773 28.9085V28.6814C30.59 28.5318 30.9612 28.2908 31.2631 27.9723C32.1024 27.144 32.3545 25.8921 31.9057 24.8035C31.457 23.7121 30.3934 23.0058 29.2134 23.0086C28.9585 23.0114 28.712 22.9089 28.5292 22.7289C28.3492 22.5488 28.2467 22.3023 28.2494 22.0447C28.2439 21.7816 28.3436 21.5267 28.5264 21.3356C28.7065 21.1528 28.953 21.0503 29.2106 21.0503C29.4682 21.0503 29.7147 21.1528 29.8947 21.3356C30.0803 21.524 30.1828 21.7788 30.1773 22.0447C30.1773 22.5765 30.6094 23.0087 31.144 23.0087C31.6758 23.0087 32.1079 22.5765 32.1079 22.0447C32.1107 21.2775 31.806 20.5379 31.2631 19.995C30.9584 19.682 30.5873 19.4383 30.1773 19.2859V19.0588C30.2023 18.7873 30.1109 18.5214 29.9253 18.3192C29.7425 18.1198 29.4821 18.0062 29.2107 18.0062C28.9392 18.0062 28.6788 18.1198 28.496 18.3192C28.3105 18.5214 28.2191 18.7873 28.2412 19.0588V19.2859C27.834 19.4383 27.4656 19.6793 27.1637 19.995C26.3272 20.8232 26.0724 22.078 26.5211 23.1666C26.9726 24.2552 28.0362 24.9643 29.2135 24.9587C29.604 24.9587 29.9558 25.1941 30.1054 25.5542C30.2549 25.9143 30.1719 26.3298 29.8949 26.6067C29.6206 26.881 29.2052 26.9641 28.845 26.8145C28.485 26.6649 28.2495 26.3131 28.2495 25.9226C28.2052 25.4212 27.787 25.0362 27.2828 25.0362C26.7787 25.0362 26.3577 25.4212 26.3134 25.9226ZM31.1995 55.1669C30.4433 54.9647 29.6649 54.8622 28.8811 54.8622C24.1002 54.8484 20.1834 58.6486 20.0536 63.4266H9.02653V12.9535H38.7502V22.634C38.7502 23.1631 39.1795 23.5924 39.7086 23.598H49.4033V27.7888H40.027C38.4925 27.7888 37.246 29.0325 37.2405 30.5671V47.2165H30.1496C29.5568 47.2137 28.989 47.4492 28.5679 47.8674C28.1497 48.2885 27.9143 48.8563 27.917 49.4491V51.8976C27.9142 52.4904 28.1497 53.0582 28.5679 53.4792C28.989 53.8975 29.5568 54.1329 30.1496 54.1302H31.1994V54.4349L31.1995 55.1669ZM34.8446 57.1889V57.1862C34.3266 56.707 33.7505 56.2915 33.1273 55.9536V54.4357C33.1328 54.2695 33.2657 54.1338 33.4319 54.131H46.2679C46.3482 54.131 46.4258 54.1642 46.4812 54.2224C46.5394 54.2778 46.5726 54.3554 46.5726 54.4357V56.8815C46.5726 56.9618 46.5394 57.0394 46.4812 57.0948C46.4258 57.1557 46.3482 57.1889 46.2679 57.1862H34.8225L34.8446 57.1889ZM43.7359 59.1168H36.4039C36.9856 60.0503 37.3844 61.0889 37.5811 62.172H43.7496C43.83 62.172 43.9075 62.1388 43.9629 62.0806C44.0211 62.0252 44.0543 61.9476 44.0543 61.8673V59.4215C44.0516 59.2553 43.9158 59.1196 43.7496 59.1168L43.7359 59.1168ZM45.2538 52.2032C45.2593 52.1007 45.2593 51.9982 45.2538 51.8985V50.6576H47.5085C48.0458 50.6576 48.4807 50.2227 48.4807 49.6853V44.3672C48.4807 43.8298 48.0458 43.3949 47.5085 43.3949H42.1903C41.6529 43.3949 41.2181 43.8298 41.2181 44.3672V47.2035H39.1767V30.5675C39.1794 30.346 39.2681 30.1299 39.4259 29.972C39.5838 29.8114 39.8026 29.7227 40.027 29.7255H68.1276C68.3519 29.7227 68.568 29.8114 68.7259 29.972C68.8838 30.1299 68.9724 30.3432 68.9724 30.5675V70.2766C68.9696 70.742 68.5929 71.1159 68.1276 71.1214H47.0406V69.3903C47.0406 69.2462 47.0268 69.0994 46.9991 68.9582C47.3093 68.8446 47.5918 68.6646 47.8273 68.4347C48.2483 68.0136 48.4865 67.4458 48.4865 66.853V64.4045C48.4838 63.1719 47.481 62.172 46.2457 62.172H45.9327H45.9354C45.941 62.0695 45.941 61.9698 45.9354 61.8673V59.4215C45.941 59.319 45.941 59.2165 45.9354 59.1168H46.2484H46.2457C47.481 59.1168 48.4837 58.1168 48.4865 56.8815V54.4357C48.4838 53.2004 47.481 52.2032 46.2457 52.2032L45.2538 52.2032ZM55.7682 63.8592H52.3806V67.2495H55.7709L55.7682 63.8592ZM51.4139 61.923H51.4167C50.8821 61.923 50.45 62.3551 50.45 62.8897V68.2135C50.45 68.7453 50.8821 69.1774 51.4167 69.1774H56.7266C56.9814 69.1774 57.2279 69.0777 57.408 68.8949C57.588 68.7148 57.6905 68.4711 57.6905 68.2135V62.8898C57.6905 62.3552 57.2584 61.9231 56.7266 61.9231L51.4139 61.923ZM17.5853 35.5179H13.6576V39.44H17.5853V35.5179ZM12.6937 33.5817H12.691C12.1592 33.5817 11.7243 34.0139 11.7215 34.5457V40.4178C11.7215 40.9552 12.1564 41.39 12.691 41.39H18.5493C18.8069 41.39 19.0534 41.2876 19.2334 41.1047C19.4135 40.9219 19.516 40.6754 19.5132 40.4178V34.5457C19.5132 34.2909 19.4107 34.0443 19.2307 33.8643C19.0506 33.6843 18.8041 33.5818 18.5493 33.5818L12.6937 33.5817ZM17.5853 45.4675H13.6576V49.3897L17.5853 49.3869V45.4675ZM12.6937 43.5314H12.691C12.1592 43.5314 11.7243 43.9607 11.7215 44.4953V50.3453C11.7215 50.8826 12.1564 51.3175 12.691 51.3175H18.5493C18.8069 51.3175 19.0534 51.215 19.2334 51.0322C19.4135 50.8494 19.516 50.6029 19.5132 50.3453V44.4953C19.5132 44.2405 19.4107 43.994 19.2307 43.8139C19.0506 43.6339 18.8041 43.5314 18.5493 43.5314L12.6937 43.5314ZM17.5853 55.4171L13.6576 55.4144V59.3365H17.5853V55.4144V55.4171ZM12.6937 53.481H12.691C12.1564 53.481 11.7215 53.9158 11.7215 54.4504V60.3087C11.7243 60.8405 12.1591 61.2727 12.691 61.2727H18.5493C18.8041 61.2727 19.0506 61.1702 19.2307 60.9901C19.4107 60.8101 19.5132 60.5636 19.5132 60.3087V54.4504C19.516 54.1928 19.4135 53.9463 19.2334 53.7635C19.0534 53.5835 18.8069 53.481 18.5493 53.481L12.6937 53.481ZM33.9637 19.2504C31.7035 16.9929 28.1608 16.6439 25.5042 18.4194C22.8479 20.1949 21.8148 23.6019 23.0362 26.5548C24.2606 29.5075 27.3988 31.186 30.5313 30.5628C33.6669 29.9423 35.9271 27.1918 35.9299 23.9954C35.9299 22.2171 35.224 20.5106 33.9637 19.2504ZM29.2217 15.3504C25.0973 15.3476 21.5436 18.2588 20.7374 22.3056C19.9314 26.3496 22.0947 30.3991 25.9032 31.9811C29.7146 33.56 34.1074 32.2276 36.4013 28.7985C38.6921 25.3694 38.2433 20.7992 35.3266 17.882C33.7091 16.2589 31.5124 15.3476 29.2217 15.3504ZM22.5351 36.3437L35.0272 36.3409C35.5618 36.3409 35.9939 35.9088 35.9939 35.3769C35.9939 34.8451 35.5618 34.413 35.0272 34.413H22.5266C21.9948 34.413 21.5627 34.8451 21.5627 35.3769C21.5627 35.9088 21.9948 36.3409 22.5266 36.3409L22.5351 36.3437ZM22.5351 40.5483L31.5619 40.5456C32.0632 40.504 32.4482 40.083 32.4482 39.5789C32.4482 39.0748 32.0632 38.6537 31.5619 38.6094H22.5266C22.2552 38.5872 21.9865 38.6787 21.787 38.8615C21.5876 39.0471 21.4713 39.3047 21.4713 39.5789C21.4713 39.8503 21.5876 40.1107 21.787 40.2935C21.9865 40.4763 22.2552 40.5677 22.5266 40.5455L22.5351 40.5483ZM22.5351 46.2931L35.0272 46.2904C35.5618 46.2904 35.9939 45.8582 35.9939 45.3264C35.9939 44.7918 35.5618 44.3597 35.0272 44.3597H22.5266C21.9948 44.3597 21.5627 44.7918 21.5627 45.3264C21.5627 45.8582 21.9948 46.2904 22.5266 46.2904L22.5351 46.2931ZM22.5351 50.4978H25.6485V50.4951C26.1803 50.4951 26.6124 50.0629 26.6124 49.5311C26.6124 48.9965 26.1803 48.5644 25.6485 48.5644H22.5268C21.995 48.5644 21.5629 48.9965 21.5629 49.5311C21.5629 50.0629 21.995 50.4951 22.5268 50.4951L22.5351 50.4978Z" fill="#DB5F5F"/>
</svg>
