<svg width="84" height="85" viewBox="0 0 84 85" fill="none" xmlns="http://www.w3.org/2000/svg">
<path d="M38.0901 39.9118C38.0901 40.5626 38.6226 41.0951 39.2734 41.0951C39.9242 41.0951 40.4567 40.5626 40.4567 39.9118V36.8352C40.4567 36.1844 39.9242 35.6519 39.2734 35.6519H31.866C31.2152 35.6519 30.6828 36.1844 30.6828 36.8352V52.928H26.8844V39.3086C26.8844 38.6578 26.3519 38.1253 25.7011 38.1253H18.2938C17.643 38.1253 17.1105 38.6578 17.1105 39.3086V52.928H12.0697V24.5056C12.0697 23.8547 11.5372 23.3223 10.8864 23.3223C10.2356 23.3223 9.70312 23.8547 9.70312 24.5056V54.123C9.70312 54.7738 10.2356 55.3063 10.8864 55.3063H31.866C32.5169 55.3063 33.0493 54.7738 33.0493 54.123V38.0303H38.0901V39.9235V39.9118ZM19.4771 52.9284V40.4919H24.5178V52.9284H19.4771Z" fill="#C4A320"/>
<path d="M44.2422 31.9138V36.2801C44.2422 36.9309 44.7747 37.4634 45.4255 37.4634C46.0763 37.4634 46.6088 36.9309 46.6088 36.2801V33.097H51.6495V35.085C51.6495 35.7358 52.182 36.2683 52.8328 36.2683C53.4836 36.2683 54.0161 35.7358 54.0161 35.085V31.9138C54.0161 31.2629 53.4836 30.7305 52.8328 30.7305H45.4255C44.7747 30.7305 44.2422 31.2629 44.2422 31.9138Z" fill="#C4A320"/>
<path d="M15.8199 36.7878C15.9856 36.7878 16.1512 36.7523 16.3051 36.6813L29.6404 30.6584H37.296C37.6155 30.6584 37.9232 30.5282 38.148 30.2916L50.4186 17.5355V19.559C50.4186 20.2098 50.9511 20.7423 51.6019 20.7423C52.2527 20.7423 52.7852 20.2098 52.7852 19.559V14.6247C52.7852 14.1159 52.4657 13.6899 52.0043 13.5242C51.9806 13.5242 51.9451 13.5242 51.9096 13.5006C51.8031 13.4769 51.7085 13.4414 51.5901 13.4414H51.5783H46.6913C46.0405 13.4414 45.508 13.9739 45.508 14.6247C45.508 15.2755 46.0405 15.808 46.6913 15.808H48.7975L36.7874 28.2914H29.3801C29.2144 28.2914 29.0488 28.3269 28.8949 28.3979L15.3225 34.5274C14.7309 34.7995 14.4587 35.4976 14.7309 36.0893C14.932 36.5271 15.358 36.7875 15.8077 36.7875L15.8199 36.7878Z" fill="#C4A320"/>
<path d="M52.2201 42.9531C45.6529 42.9531 40.3047 48.3016 40.3047 54.8686C40.3047 61.4355 45.6532 66.784 52.2201 66.784C58.7871 66.784 64.1356 61.4355 64.1356 54.8686C64.1356 48.3016 58.7871 42.9531 52.2201 42.9531ZM52.2201 64.4182C46.9545 64.4182 42.6713 60.1347 42.6713 54.8693C42.6713 49.6039 46.9547 45.3205 52.2201 45.3205C57.4855 45.3205 61.769 49.6039 61.769 54.8693C61.769 60.1347 57.4855 64.4182 52.2201 64.4182Z" fill="#C4A320"/>
<path d="M72.5362 71.1513L68.3828 66.9979C67.9332 66.5483 67.1522 66.5483 66.7144 66.9979L65.7796 67.9327L63.8981 66.0513C66.6907 63.1404 68.4183 59.2 68.4183 54.8576C68.4183 45.9236 61.1529 38.6581 52.2188 38.6581C43.2847 38.6581 36.0193 45.9235 36.0193 54.8576C36.0193 63.7916 43.2847 71.0571 52.2188 71.0571C55.958 71.0571 59.3896 69.7673 62.135 67.6374L64.0993 69.6017L63.1644 70.5365C62.703 70.998 62.703 71.7435 63.1644 72.2049L67.3178 76.3583C68.0278 77.0683 68.9626 77.4232 69.9092 77.4232C70.8559 77.4232 71.7789 77.0682 72.5007 76.3583L72.5361 76.3228C73.9679 74.891 73.9679 72.5712 72.5362 71.1513ZM38.3984 54.8692C38.3984 47.2492 44.5988 41.0363 52.2313 41.0363C59.8638 41.0363 66.0642 47.2367 66.0642 54.8692C66.0642 62.5017 59.8638 68.7022 52.2313 68.7022C44.5988 68.7022 38.3984 62.5017 38.3984 54.8692ZM70.8322 74.6894C70.3234 75.1864 69.5069 75.1864 69.01 74.6894L65.6968 71.3762L67.5664 69.5066L70.8796 72.8198C71.3766 73.3286 71.3766 74.1451 70.8796 74.642L71.7198 75.4822L70.8442 74.6893L70.8322 74.6894Z" fill="#C4A320"/>
</svg>
